<svg xmlns="http://www.w3.org/2000/svg" viewBox="0 0 32 32">
  <style>
    /* Transparent background; maroon glyph by default. In dark mode, switch the
       glyph to the site cream so it stays visible on a dark tab/background. */
    @media (prefers-color-scheme: dark) {
      path { fill: #fffefc; }
    }
  </style>
  <path transform="translate(3.394 28.590) scale(0.03157 -0.03157)" fill="#552222" d="M612 740C527 817 408 818 348 803C281 786 213 739 185 672C170 640 166 589 185 557C219 499 331 488 373 483L403 475L376 432C364 432 352 435 340 435L307 440C241 451 153 452 142 543L137 542L133 537L125 525C123 522 119 516 115 506C99 474 97 430 116 400C149 343 268 334 293 331L315 325C289 276 265 231 211 213C207 220 213 228 216 233L221 252C223 264 219 277 212 288C201 303 187 309 173 308C156 307 142 296 134 280C124 261 126 233 136 217C149 194 173 187 193 186C263 186 306 272 340 323C379 319 485 311 523 282C550 263 550 242 543 211C548 203 556 210 557 212C560 214 564 217 570 224C580 233 587 245 591 253C610 287 614 329 597 358C564 421 425 424 406 426L400 431L410 454C417 465 416 469 426 475C452 473 568 454 593 444C636 427 658 406 667 367C686 293 634 235 565 155L524 110C470 151 442 154 391 162C269 183 145 145 47 17C67 29 106 48 142 60C243 95 347 66 460 -13C479 12 484 21 502 45L628 186C733 304 776 378 738 473C701 563 562 570 504 574C496 581 505 590 510 597C515 605 519 612 525 620C537 634 547 646 564 662C617 716 626 721 649 740L642 754L616 740ZM496 661C514 622 500 618 470 579H450C408 582 272 585 239 652C231 670 231 693 247 716C271 749 324 772 359 768C428 761 460 738 496 661Z"/>
</svg>
